<?xml version="1.0" standalone="no"?>
<!DOCTYPE svg PUBLIC "-//W3C//DTD SVG 20010904//EN"
 "http://www.w3.org/TR/2001/REC-SVG-20010904/DTD/svg10.dtd">
<svg version="1.0" xmlns="http://www.w3.org/2000/svg"
 width="1024.000000pt" height="1024.000000pt" viewBox="0 0 1024.000000 1024.000000"
 preserveAspectRatio="xMidYMid meet">

<g transform="translate(0.000000,1024.000000) scale(0.100000,-0.100000)"
fill="#0A0038" stroke="none">
<path d="M4775 9609 c-1344 -106 -2576 -812 -3348 -1921 -187 -269 -383 -634
-500 -933 -142 -361 -242 -777 -287 -1190 -18 -166 -24 -574 -11 -755 59 -814
314 -1554 769 -2225 585 -866 1476 -1512 2480 -1800 1173 -338 2458 -180 3502
430 1169 682 1965 1830 2189 3155 45 265 55 402 55 745 0 435 -30 699 -125
1084 -78 319 -173 577 -329 896 -475 971 -1269 1727 -2271 2163 -438 190 -945
314 -1445 351 -162 13 -518 12 -679 0z m470 -1194 c175 -46 305 -188 337 -371
l12 -69 85 -55 c106 -68 321 -279 405 -398 368 -520 594 -1234 667 -2117 16
-183 16 -710 0 -900 -25 -313 -69 -599 -132 -870 -34 -143 -82 -314 -99 -344
-19 -36 -61 -61 -102 -61 -54 0 -92 22 -113 67 -21 43 -22 35 48 303 267 1017
205 2298 -155 3190 -134 332 -283 575 -467 763 -76 78 -207 186 -215 176 -65
-93 -152 -158 -253 -189 -119 -37 -257 -20 -365 43 -65 38 -145 128 -181 204
-30 65 -32 74 -32 188 0 113 2 124 31 185 97 204 316 310 529 255z m-1265
-1355 c211 -26 292 -43 321 -67 60 -51 59 -136 -2 -188 -38 -31 -69 -32 -249
-5 -194 30 -479 37 -650 17 -567 -67 -870 -339 -870 -783 0 -182 53 -371 170
-610 85 -171 89 -207 36 -260 -30 -30 -41 -34 -84 -34 -35 0 -57 6 -76 21 -36
28 -172 305 -214 434 -62 194 -76 274 -76 455 -1 194 17 278 88 425 166 344
513 547 1036 604 102 12 451 6 570 -9z m2942 -5 c480 -63 803 -261 964 -590
72 -147 87 -221 88 -420 1 -129 -3 -191 -17 -255 -61 -286 -221 -617 -439
-910 -110 -147 -175 -217 -212 -230 -74 -24 -156 39 -156 121 0 28 9 50 37 86
276 356 394 556 479 808 73 218 84 445 30 612 -103 319 -424 506 -931 544 -89
6 -161 17 -177 25 -73 38 -76 159 -6 208 30 21 187 21 340 1z m-943 -80 c38
-19 65 -77 57 -123 -11 -70 -42 -87 -251 -142 -520 -134 -1006 -346 -1515
-660 -823 -508 -1469 -1207 -1670 -1808 -40 -118 -74 -296 -68 -349 3 -26 7
-28 62 -35 119 -15 261 -110 323 -216 63 -108 80 -246 43 -365 -77 -249 -338
-382 -583 -298 -71 25 -113 52 -173 111 -185 183 -178 473 17 654 l56 52 7
112 c8 142 28 248 73 387 352 1094 1857 2274 3398 2666 125 31 184 35 224 14z
m-739 -1742 c97 -39 160 -112 186 -213 18 -71 13 -121 -20 -196 -46 -102 -137
-164 -252 -172 -103 -7 -163 16 -235 87 -117 117 -122 289 -12 411 90 100 215
131 333 83z m-2116 -452 c13 -6 94 -79 178 -163 834 -834 2051 -1437 3088
-1529 160 -14 425 -7 555 15 159 27 365 95 365 120 0 6 -7 33 -15 60 -22 72
-19 194 6 268 64 192 227 309 430 309 228 1 413 -157 451 -385 31 -186 -74
-387 -246 -471 -131 -65 -261 -68 -393 -10 l-57 26 -90 -40 c-153 -66 -272
-100 -446 -125 -366 -54 -803 -15 -1290 115 -675 180 -1408 548 -2005 1008
-319 246 -672 581 -691 657 -22 89 75 177 160 145z m819 -1475 c49 -20 61 -40
120 -186 144 -360 348 -678 539 -841 180 -155 343 -223 528 -223 123 0 200 18
311 74 185 92 341 243 508 492 62 94 76 109 110 119 49 15 82 6 124 -30 29
-26 32 -35 32 -83 0 -44 -7 -63 -39 -113 -254 -390 -542 -622 -859 -691 -108
-24 -282 -21 -391 5 -442 106 -826 529 -1095 1204 -28 71 -51 143 -51 161 0
45 38 98 80 113 45 15 45 15 83 -1z"/>
<path d="M5044 8162 c-157 -74 -155 -302 4 -378 52 -24 148 -16 200 18 49 33
92 114 92 173 0 60 -42 137 -93 171 -55 37 -143 44 -203 16z"/>
<path d="M2461 3605 c-137 -44 -186 -217 -93 -326 68 -79 158 -99 249 -54 87
44 129 134 109 238 -7 38 -65 111 -105 131 -42 22 -111 27 -160 11z"/>
<path d="M7678 3611 c-127 -41 -189 -182 -131 -296 26 -50 46 -68 103 -94 200
-91 386 167 237 327 -48 52 -149 82 -209 63z"/>
</g>
</svg>
